<?xml version="1.0"?>
<svg xmlns="http://www.w3.org/2000/svg" xmlns:xlink="http://www.w3.org/1999/xlink" xmlns:svgjs="http://svgjs.com/svgjs" version="1.1" width="512" height="512" x="0" y="0" viewBox="0 0 24 24" style="enable-background:new 0 0 512 512" xml:space="preserve" class=""><g><path xmlns="http://www.w3.org/2000/svg" d="m17.5 24c-3.584 0-6.5-2.916-6.5-6.5s2.916-6.5 6.5-6.5 6.5 2.916 6.5 6.5-2.916 6.5-6.5 6.5zm0-12c-3.033 0-5.5 2.467-5.5 5.5s2.467 5.5 5.5 5.5 5.5-2.467 5.5-5.5-2.467-5.5-5.5-5.5z" fill="#ffffff" data-original="#000000" style=""/><path xmlns="http://www.w3.org/2000/svg" d="m20 20.5c-.109 0-.22-.036-.312-.109l-2.5-2c-.119-.096-.188-.239-.188-.391v-3.5c0-.276.224-.5.5-.5s.5.224.5.5v3.26l2.312 1.85c.215.173.25.487.078.703-.098.123-.244.187-.39.187z" fill="#ffffff" data-original="#000000" style=""/><path xmlns="http://www.w3.org/2000/svg" d="m10.007 10.5c-.184 0-.36-.101-.448-.276-.123-.247-.023-.548.224-.671l9.494-4.75c.154-.078.338-.07.486.022.147.091.237.252.237.425v4.25c0 .276-.224.5-.5.5s-.5-.224-.5-.5v-3.441l-8.77 4.388c-.072.036-.148.053-.223.053z" fill="#ffffff" data-original="#000000" style=""/><path xmlns="http://www.w3.org/2000/svg" d="m9.493 20c-.082 0-.166-.02-.243-.063l-8.994-5c-.157-.088-.256-.255-.256-.437v-9.25c0-.173.09-.334.237-.425.147-.092.332-.1.486-.022l9.494 4.75c.247.124.347.424.224.671-.124.247-.424.347-.671.224l-8.77-4.389v8.147l8.737 4.857c.241.134.328.438.194.68-.092.164-.262.257-.438.257z" fill="#ffffff" data-original="#000000" style=""/><path xmlns="http://www.w3.org/2000/svg" d="m19.5 5.75c-.075 0-.151-.017-.223-.053l-9.283-4.638-9.27 4.638c-.247.122-.547.024-.671-.223s-.023-.547.224-.671l9.494-4.75c.141-.07.307-.07.447 0l9.506 4.75c.247.124.347.424.224.671-.088.175-.265.276-.448.276z" fill="#ffffff" data-original="#000000" style=""/><path xmlns="http://www.w3.org/2000/svg" d="m5.043 11.739c-.276 0-.5-.224-.5-.5v-3.718c0-.189.107-.362.276-.447l9.494-4.75c.247-.123.547-.023.671.224s.023.547-.224.671l-9.217 4.612v3.409c0 .276-.223.499-.5.499z" fill="#ffffff" data-original="#000000" style=""/></g></svg>
